<svg id="layer" data-name="layer" xmlns="http://www.w3.org/2000/svg" viewBox="0 0 387.18 51.19"><defs><style>.cls-1{fill:#fff;}</style></defs><title>PowerCMSX_white</title><path class="cls-1" d="M34.22,13.35A10.66,10.66,0,0,0,30,4.43c-2.82-2.17-6.68-3.27-11.48-3.27-1.92,0-4.31,0-7.1.11S7,1.39,6.37,1.39h-5c.37,6.89.55,14.74.55,23.34,0,10-.18,18.71-.55,25.89H7.74c-.4-7.69-.6-14.36-.6-19.83v-.54l.54,0c.68.05,1.5.07,2.43.07,7.38,0,13.32-1.44,17.67-4.27S34.22,19,34.22,13.35ZM10.89,26.42c-1.36,0-2.45,0-3.35-.07l-.47,0v-.47C7.07,17,7,10.45,6.8,6.27l0-.45.44-.06c14.29-2,21.56,1.27,21.56,9.83C28.78,22.78,22.76,26.42,10.89,26.42Z" transform="translate(-1.38 -0.69)"/><path class="cls-1" d="M63.14,20.94a14.63,14.63,0,0,0-10.55-4.29A15.83,15.83,0,0,0,41.1,21.51c-3.25,3.22-4.9,7.78-4.9,13.56,0,5.15,1.49,9.18,4.41,12a14.78,14.78,0,0,0,10.58,4.25A15.89,15.89,0,0,0,62.66,46.5c3.24-3.19,4.88-7.71,4.88-13.44C67.54,27.87,66.06,23.79,63.14,20.94ZM59.91,43.75a9,9,0,0,1-8,4.21,9.1,9.1,0,0,1-8.1-4.41,17.94,17.94,0,0,1-2.76-9.86,16.81,16.81,0,0,1,2.73-9.5,9.09,9.09,0,0,1,8-4.19,9.07,9.07,0,0,1,8.06,4.42,18,18,0,0,1,2.76,9.85A16.9,16.9,0,0,1,59.91,43.75Z" transform="translate(-1.38 -0.69)"/><path class="cls-1" d="M122.29,18.17h-4.81c-.19,2.1-1.4,6.4-3.72,13.11-2.44,7.08-3.68,11.35-3.68,12.69v.5h-1.34V44c0-.62-.74-3.36-4.24-12.91-3.23-8.78-4.07-11.74-4.26-12.89h-4.9c-.25,1.7-1.6,5.75-4.11,12.33C88.52,37.62,87.15,42.15,87.15,44v.5H85.77V44c0-.81-.68-3.72-4-13-2.42-6.87-3.72-11.07-4-12.78H72.79c.29,1.37,1.56,5.31,5.44,15.53C81.63,42.65,83.44,48,83.75,50h3.78c.17-1,.82-3.31,3.12-9.68,2.63-7.28,4.52-12.93,5.6-16.78l.1-.36h1l.1.36c1.18,4,3.2,9.63,6,16.73C106,46.64,106.73,49,106.92,50h3.74c.3-2.11,2.22-7.45,5.86-16.24C120.7,23.61,122,19.63,122.29,18.17Z" transform="translate(-1.38 -0.69)"/><path class="cls-1" d="M136.08,43.42a13,13,0,0,1-4-8.77l0-.52,23.54-.42c.07-1.46.11-2.64.11-3.51a14.4,14.4,0,0,0-3.32-9.79c-2.18-2.5-5.42-3.76-9.65-3.76a13.34,13.34,0,0,0-11,5.24,20,20,0,0,0-4.15,12.66,16.26,16.26,0,0,0,4.53,11.6c3,3.15,7.44,4.74,13.19,4.74a27.71,27.71,0,0,0,9.21-1.2l.46-3.84A36.55,36.55,0,0,1,145.76,47,13.41,13.41,0,0,1,136.08,43.42Zm-3.8-12.85c1-7,4.44-10.5,10.17-10.5S151,23.5,151,30.27v.49l-18.79.4Z" transform="translate(-1.38 -0.69)"/><path class="cls-1" d="M182.16,22.49,183.42,18a20.43,20.43,0,0,0-5.61-1c-3.09,0-5.85,1.77-8.2,5.27l-.15.22h-1V22a34.57,34.57,0,0,0-.56-4.51l-5,.71a75.87,75.87,0,0,1,1.51,15.26c0,3.93-.18,9.48-.52,16.48h5c-.13-4.28-.19-11.57-.19-21.69l0-.15c1.34-4.33,4.31-6.53,8.82-6.53A13.53,13.53,0,0,1,182.16,22.49Z" transform="translate(-1.38 -0.69)"/><path class="cls-1" d="M200,40.88a21.54,21.54,0,0,1-5.69-15,21.93,21.93,0,0,1,4.94-14.47c3.3-4,8.19-6,14.54-6a26.72,26.72,0,0,1,7.52,1.25l.9-5.13a27.54,27.54,0,0,0-6.76-.9c-8.2,0-14.81,2.62-19.66,7.8a26.46,26.46,0,0,0-7.31,18.62,25,25,0,0,0,6.55,17.43c4.33,4.71,10.91,7.1,19.57,7.1a35.69,35.69,0,0,0,9.87-1.31l.41-4.69a37.14,37.14,0,0,1-9.16,1.49C209.09,47.14,203.8,45,200,40.88Z" transform="translate(-1.38 -0.69)"/><path class="cls-1" d="M282.56,1.39h-8.94c-.23,3.12-2.51,10-7,20.85-4.58,11.24-6.9,18.11-6.9,20.43v.5h-1.39v-.5c0-2.33-2.07-9.19-6.14-20.39-3.95-10.87-6-17.72-6.19-20.89h-9.16c0,5.51-.94,15.1-2.62,28.55-1.5,11.85-2.36,18.78-2.57,20.67h5.58c0-4.72.51-12.32,1.41-22.61.93-10.63,1.45-17.8,1.52-21.3V6.21h1.27l.09.38c.36,1.4,1,3.78,2,7.08s3.32,10,7,19.78c3.44,9.24,5.25,14.88,5.51,17.16h4.28c.29-2.19,2.23-7.73,5.92-16.87,3.92-9.71,7.2-18.85,9.76-27.17l.11-.36h1.24l0,.49c.05,2.14.47,8.7,1.27,19.5.77,10.51,1.17,18.72,1.19,24.41h6.23c-.11-1.48-.53-6.6-1.74-20.82C283.19,16.45,282.6,6.91,282.56,1.39Z" transform="translate(-1.38 -0.69)"/><path class="cls-1" d="M319.86,28.07c-2.09-1.83-5.55-3.8-10.29-5.85a50.77,50.77,0,0,1-8.27-4.15,7,7,0,0,1-3.06-5.76c0-4.74,3.5-7.14,10.41-7.14a41.75,41.75,0,0,1,12.06,1.71l.77-5.15c-2.28-.69-6.32-1-12-1-5.25,0-9.36,1.31-12.21,3.89a11.53,11.53,0,0,0-3.81,8.92,11.49,11.49,0,0,0,3.74,8.74c1.83,1.7,5.09,3.61,9.7,5.66s7.49,3.58,9.05,4.81a8.42,8.42,0,0,1,3.59,6.79c0,5.25-4.58,7.91-13.61,7.91A37.86,37.86,0,0,1,294,45.32l-1.13,5.06a46.1,46.1,0,0,0,12.29,1.51c13,0,19.37-4.51,19.37-13.78A13,13,0,0,0,319.86,28.07Z" transform="translate(-1.38 -0.69)"/><path class="cls-1" d="M370.65,23.48l-.13-.14v-.78l.14-.15c1.63-1.65,4.75-5.49,9.26-11.41,4.73-6.25,6.27-8.67,6.76-9.61h-7c-.25.92-1.17,3-4.27,8.58a81.54,81.54,0,0,1-6.3,10.14l-.15.18h-.85l-.15-.17a89.12,89.12,0,0,1-6.57-10C358,4.45,357,2.32,356.76,1.39h-7.19a106.92,106.92,0,0,0,6.4,10c4.29,6.28,7.15,10.25,8.52,11.79l.13.14v.79l-.16.15c-1.28,1.21-4.63,5.85-10,13.8-5.57,8.32-7.36,11.42-7.87,12.54h7c.21-1.15,1.2-3.8,5.1-11.16a115.21,115.21,0,0,1,7.22-12.33l.14-.2H367l.15.18a123.58,123.58,0,0,1,8.33,12.64c4.35,7.22,5.52,9.79,5.79,10.87h7.31c-.42-1.14-2.07-4.24-7.54-12.54C376.07,30.55,372.58,25.64,370.65,23.48Z" transform="translate(-1.38 -0.69)"/></svg>